<?xml version="1.0" encoding="UTF-8" standalone="no"?>
<svg width="31px" height="37px" viewBox="0 0 31 37" version="1.1" xmlns="http://www.w3.org/2000/svg" xmlns:xlink="http://www.w3.org/1999/xlink">
    <!-- Generator: Sketch 41.2 (35397) - http://www.bohemiancoding.com/sketch -->
    <title>bettingTipsIcon</title>
    <desc>Created with Sketch.</desc>
    <defs></defs>
    <g id="SPORTSBET---WORKING-AREA" stroke="none" stroke-width="1" fill="none" fill-rule="evenodd" opacity="0.501358696">
        <g id="Sportsbet---Main" transform="translate(-514.000000, -2326.000000)" fill="#FFFFFF">
            <g id="Group-13" transform="translate(445.000000, 2302.000000)">
                <g id="Group-4">
                    <g id="Group-6" transform="translate(36.045455, 24.030303)">
                        <g id="Group-6-Copy-3" transform="translate(33.272727, 0.000000)">
                            <g id="Group-14">
                                <g id="Group-2">
                                    <g id="bettingTipsIcon">
                                        <path d="M19.9072086,27.1971485 L18.2943055,27.1971485 C18.2943055,24.628555 19.8483376,23.1289949 21.4943052,21.5404161 L21.5684988,21.4683919 C23.2846277,19.811026 24.269305,17.4649792 24.269305,15.030723 C24.269305,12.5729982 23.3201115,10.2933107 21.5967246,8.61247623 C19.9644666,7.02146966 17.8338216,6.18145704 15.5926928,6.24538864 C13.3080155,6.18064778 11.1757576,7.02146966 9.54269321,8.61247623 C7.81930624,10.2933107 6.87011276,12.5729982 6.87011276,15.030723 C6.87011276,17.4649792 7.85479011,19.811026 9.57172546,21.4683919 L9.64672546,21.5412254 C11.2918866,23.1298042 12.8451123,24.628555 12.8451123,27.1971485 L11.2322092,27.1971485 C11.2322092,25.3180452 10.0394674,24.1656579 8.52898361,22.7073701 L8.45317716,22.6345366 C6.4217257,20.6736979 5.25720966,17.9027892 5.25720966,15.030723 C5.25720966,12.1740326 6.40962893,9.41040729 8.4193062,7.45199636 C10.3660802,5.55347073 12.9144672,4.56050783 15.5926928,4.62686721 C18.2193055,4.56293561 20.7725311,5.55347073 22.720918,7.45199636 C24.7297888,9.41040729 25.8822081,12.1740326 25.8822081,15.030723 C25.8822081,17.9027892 24.7184985,20.6736979 22.6862406,22.6345366 L22.6120471,22.7065608 C21.0999504,24.1656579 19.9072086,25.3180452 19.9072086,27.1971485 Z" id="Fill-1"></path>
                                        <path d="M16.2490637,36.5131151 L14.6361606,36.5131151 C14.4224509,36.5131151 14.2168058,36.4281427 14.0659993,36.2760017 L13.4958381,35.7038544 L12.2168059,35.7038544 L12.2168059,34.085333 L13.829709,34.085333 C14.0442251,34.085333 14.2490638,34.1703053 14.3998703,34.3224463 L14.9700315,34.8945937 L15.9151927,34.8945937 L16.485354,34.3224463 C16.6361604,34.1703053 16.8418056,34.085333 17.0555152,34.085333 L18.6684183,34.085333 L18.6684183,35.7038544 L17.3893862,35.7038544 L16.8192249,36.2760017 C16.6684185,36.4281427 16.4635798,36.5131151 16.2490637,36.5131151" id="Fill-3"></path>
                                        <polygon id="Fill-5" points="11.4105156 30.8482901 19.4750312 30.8482901 19.4750312 29.2297687 11.4105156 29.2297687"></polygon>
                                        <polygon id="Fill-7" points="11.4105156 33.2760722 19.4750312 33.2760722 19.4750312 31.6575508 11.4105156 31.6575508"></polygon>
                                        <polygon id="Fill-8" points="1.03358094 19.9066806 0.615839036 18.3431889 4.06745168 17.4157761 4.48438713 18.9792678"></polygon>
                                        <polygon id="Fill-9" points="5.37849997 26.6210358 4.23817747 25.4767412 6.76479019 22.9413274 7.90511269 24.085622"></polygon>
                                        <polygon id="Fill-10" points="11.8544672 3.88186179 10.9294673 0.419035198 12.4867252 -0.000161852143 13.4125316 3.46266474"></polygon>
                                        <polygon id="Fill-11" points="6.76454825 7.31409834 4.23793554 4.77868452 5.37825804 3.63438987 7.90487075 6.16980369"></polygon>
                                        <polygon id="Fill-12" points="4.06720975 12.8398923 0.616403552 11.9124796 1.033339 10.3489879 4.48495165 11.2764006"></polygon>
                                        <polygon id="Fill-13" points="27.3156758 12.8398923 26.8979338 11.2764006 30.3495465 10.3489879 30.7664819 11.9124796"></polygon>
                                        <polygon id="Fill-14" points="30.3493046 19.9066806 26.8984984 18.9792678 27.3154338 17.4157761 30.7670465 18.3431889"></polygon>
                                        <polygon id="Fill-15" points="26.0043855 26.6210358 23.4777728 24.085622 24.6180953 22.9413274 27.144708 25.4767412"></polygon>
                                        <polygon id="Fill-16" points="19.5291441 3.88186179 17.9710797 3.46266474 18.8960796 -0.000161852143 20.4533376 0.419035198"></polygon>
                                        <polygon id="Fill-17" points="24.6183372 7.31409834 23.4780147 6.16980369 26.0046275 3.63438987 27.14495 4.77868452"></polygon>
                                        <path d="M11.2055837,16.0103151 C11.2055837,15.9329827 11.2262937,15.5437993 11.6380079,15.5437993 C12.2402538,15.5437993 12.4606079,16.4129475 12.5318502,16.8298697 C12.0812013,16.8080149 11.2055837,16.6802484 11.2055837,16.0103151 L11.2055837,16.0103151 Z M14.8795325,13.7491848 C15.0253307,13.4533046 15.345921,13.2935965 15.5729023,13.2935965 C15.800712,13.2935965 16.1213023,13.4533046 16.2671005,13.7491848 C16.4145555,14.0467462 16.3416564,14.4098719 16.0682848,14.7839251 C15.9092322,14.9764154 15.742724,15.154616 15.5720739,15.3176863 C15.4063941,15.1588188 15.2448564,14.9856616 15.0899458,14.7990553 C14.8049766,14.4098719 14.7320775,14.0467462 14.8795325,13.7491848 L14.8795325,13.7491848 Z M19.5077967,15.5437993 C19.8905169,15.5437993 19.9385641,15.8724618 19.9410493,16.0103151 C19.9410493,16.6802484 19.0654317,16.8088555 18.6139544,16.8298697 C18.6827115,16.4280778 18.9014087,15.5437993 19.5077967,15.5437993 L19.5077967,15.5437993 Z M13.2716104,17.5132522 C13.9103059,17.3527035 14.7577579,16.8534056 15.5720739,16.1893562 C16.3847331,16.8517245 17.2338419,17.3527035 17.8750226,17.5132522 L16.7782226,24.7597963 L17.142718,24.7597963 L18.5178601,17.5947874 C19.5318202,17.5788165 20.5896855,17.0803592 20.5896855,16.0103151 C20.5896855,15.558089 20.3014027,14.8856339 19.5077967,14.8856339 C18.4880377,14.8856339 18.0696963,15.9893008 17.9644897,16.7516968 C17.4616516,16.6121624 16.758341,16.2893839 16.066628,15.7480576 C16.2422485,15.575741 16.4891114,15.3908158 16.6680455,15.191601 C17.3083978,14.3905389 17.1269785,13.4297687 16.9621271,13.1238016 C16.7028383,12.6421556 16.0856812,12.3059281 15.5729023,12.3059281 C15.0617802,12.3059281 14.4446231,12.6421556 14.1845059,13.1238016 C14.0188261,13.4297687 13.8382352,14.3905389 14.4918418,15.2067312 C14.6658056,15.4000621 14.9068696,15.5799438 15.0775198,15.747217 C14.38415,16.2902245 13.6833246,16.6121624 13.1821433,16.7516968 C13.0703095,15.9724895 12.6503113,14.8856339 11.6380079,14.8856339 C10.8444018,14.8856339 10.5569474,15.558089 10.5569474,16.0103151 C10.5569474,17.0803592 11.6139843,17.5788165 12.6279445,17.5947874 L14.0047433,24.7597963 L14.3684104,24.7597963 L13.2716104,17.5132522 Z" id="Page-1"></path>
                                    </g>
                                </g>
                            </g>
                        </g>
                    </g>
                </g>
            </g>
        </g>
    </g>
</svg>