<?xml version="1.0" encoding="UTF-8" standalone="no"?>
<svg width="44px" height="37px" viewBox="0 0 44 37" version="1.1" xmlns="http://www.w3.org/2000/svg" xmlns:xlink="http://www.w3.org/1999/xlink">
    <!-- Generator: Sketch 41.2 (35397) - http://www.bohemiancoding.com/sketch -->
    <title>live-betting-icon</title>
    <desc>Created with Sketch.</desc>
    <defs></defs>
    <g id="SPORTSBET---WORKING-AREA" stroke="none" stroke-width="1" fill="none" fill-rule="evenodd" opacity="0.50220788">
        <g id="Sportsbet---Main" transform="translate(-728.000000, -2326.000000)" fill="#FFFFFF">
            <g id="Group-13" transform="translate(445.000000, 2302.000000)">
                <g id="Group-9" transform="translate(220.000000, 0.000000)">
                    <g id="Group-7" transform="translate(36.969697, 23.030303)">
                        <g id="Page-1" transform="translate(47.818182, 19.469697) scale(-1, -1) translate(-47.818182, -19.469697) translate(26.318182, 0.969697)">
                            <g id="live-betting-icon">
                                <path d="M8.38653466,32.5728767 L7.02537402,31.3971641 L13.2063822,23.9664422 L8.54630368,15.0772184 L10.1198946,14.2206667 L15.3529994,24.2001298 L8.38653466,32.5728767 Z M18.2645444,36.8501791 C18.2020648,36.8501791 18.1395853,36.8474512 18.0753207,36.8410862 L6.49786849,35.7117474 C5.78738726,35.5926304 5.17419555,35.0916113 4.83055828,34.3241701 L0.18654595,23.9109755 C-0.162446712,23.1444436 -0.0124959009,22.2242416 0.558745285,21.5968312 L7.17889509,12.1329358 C7.58768956,11.626461 8.28924515,11.3209394 8.96491636,11.3864083 L17.0417312,12.1683981 L16.8730365,13.9787955 L8.79354401,13.1968056 C8.74445297,13.1840756 8.59182446,13.238633 8.52220444,13.3331992 L8.44187365,13.4377676 L1.87527771,22.8252826 C1.80744281,22.8934794 1.74853357,23.0207801 1.80922794,23.1517179 L6.45413284,33.5703683 C6.55142235,33.7867795 6.67905905,33.9058965 6.83168756,33.923173 L6.97449785,33.9404496 L18.2449079,35.0306889 C18.3270239,35.0388725 18.4671565,34.9915894 18.5332062,34.8970232 L24.2634694,26.6915858 L25.7174567,27.7454535 L19.9880861,35.9499815 C19.5989281,36.5101045 18.9366453,36.8501791 18.2645444,36.8501791 Z" id="Fill-1"></path>
                                <path d="M40.3279319,8.96105776 C40.3306095,8.96469492 40.3395352,8.97560641 40.3529237,8.98924577 L40.3279319,8.96105776 Z M19.1911154,19.2615004 L19.2045039,19.3169671 C19.2036113,19.3106021 19.2000411,19.2905977 19.1911154,19.2615004 L19.1911154,19.2615004 Z M19.3526696,19.3515202 L28.5942809,26.0375331 C28.6808596,26.1002742 28.7406614,26.1411923 28.7808268,26.1666524 L39.2247223,21.301039 C39.5362273,21.1564618 39.5380124,21.138276 39.553186,20.9673294 L40.5635688,9.42934236 C40.5582135,9.387515 40.5537506,9.34750622 40.5528581,9.30567886 L41.3392073,8.81648058 L40.5287588,9.19747329 L40.3886262,9.02925455 L31.1077421,2.313235 C31.0622213,2.28050054 30.9095928,2.2468568 30.8051628,2.29232132 C30.7703528,2.30868855 30.0125656,2.66240255 20.5415653,7.0833729 L20.3933996,7.13702104 C20.3005729,7.16157189 20.1881098,7.24068016 20.1756139,7.38525735 L19.1438095,19.0769144 L19.1741567,19.1714807 L19.3526696,19.3515202 Z M28.7879673,28.0143307 C28.2399328,28.0143307 27.8025763,27.696079 27.5580137,27.5187673 L18.0566661,20.6145247 C17.9656246,20.5317792 17.8977897,20.4481245 17.8460209,20.3835649 C17.778186,20.3008194 17.7130288,20.2189833 17.6514419,20.1198706 L17.5327308,19.9198267 C17.4684662,19.7761588 17.4497224,19.6552232 17.4407967,19.5961193 C17.4229454,19.5515641 17.3818875,19.4115333 17.3658213,19.2387682 C17.3524328,19.1087396 17.3586808,18.9787111 17.3711767,18.8423175 C17.3783172,18.746842 17.3881354,18.6631873 17.4024164,18.584079 L18.3976257,7.22431293 C18.4717085,6.37321703 19.0545531,5.65124039 19.8587535,5.40027621 L30.079508,0.631047599 C30.7525015,0.333709609 31.5736607,0.420092206 32.1413316,0.831091506 L41.5846625,7.66350024 L41.7194397,7.82080749 C41.7533571,7.84626762 41.8577872,7.94719887 41.9568618,8.08813889 C42.0354075,8.19998162 42.0943167,8.31273364 42.1496557,8.43548786 C42.2058872,8.56187924 42.2523006,8.68099629 42.2835403,8.8137527 C42.3228132,8.97015067 42.3326314,9.11381857 42.3362016,9.2447564 C42.3424496,9.2347542 42.3638711,9.33386686 42.3495901,9.49935773 L41.3311742,21.1300924 C41.2347772,22.2239688 40.5867755,22.6667933 39.9673359,22.9559477 L29.4145475,27.8706628 C29.1940841,27.9743219 28.9843315,28.0143307 28.7879673,28.0143307 L28.7879673,28.0143307 Z" id="Fill-3"></path>
                                <polygon id="Fill-6" points="21.0183732 18.7843048 20.3105696 17.1148474 28.6221289 13.4567718 29.6441151 3.75373299 31.418533 3.94832116 30.2849763 14.7052276"></polygon>
                                <polygon id="Fill-8" points="37.2527799 20.7641029 28.9403281 14.8255268 29.9658845 13.3361089 38.2774438 19.2746851"></polygon>
                                <polygon id="Fill-10" points="14.2792445 24.9922128 19.6346306 24.9922128 19.6346306 23.1736318 14.2792445 23.1736318"></polygon>
                                <polygon id="Fill-12" points="7.13872969 20.4457603 8.9238584 20.4457603 8.9238584 18.6271794 7.13872969 18.6271794"></polygon>
                                <polygon id="Fill-13" points="5.35360099 27.7200843 7.13872969 27.7200843 7.13872969 25.9015033 5.35360099 25.9015033"></polygon>
                                <polygon id="Fill-14" points="23.4785165 10.7423009 25.2636452 10.7423009 25.2636452 8.92371996 23.4785165 8.92371996"></polygon>
                                <polygon id="Fill-14-Copy" points="15.8638625 30.5019666 17.6489912 30.5019666 17.6489912 28.6833856 15.8638625 28.6833856"></polygon>
                                <polygon id="Fill-15" points="28.5602742 19.5364699 30.3454029 19.5364699 30.3454029 17.7178889 28.5602742 17.7178889"></polygon>
                                <polygon id="Fill-16" points="32.1305316 22.2643413 33.9156603 22.2643413 33.9156603 20.4457603 32.1305316 20.4457603"></polygon>
                                <polygon id="Fill-17" points="28.5602742 24.0829223 30.3454029 24.0829223 30.3454029 22.2643413 28.5602742 22.2643413"></polygon>
                                <polygon id="Fill-18" points="24.9900168 21.3550508 26.7751455 21.3550508 26.7751455 19.5364699 24.9900168 19.5364699"></polygon>
                                <polygon id="Fill-19" points="32.1305316 7.71569351 33.9156603 7.71569351 33.9156603 5.89711253 32.1305316 5.89711253"></polygon>
                                <polygon id="Fill-20" points="36.5933533 15.8993079 38.378482 15.8993079 38.378482 14.0807269 36.5933533 14.0807269"></polygon>
                            </g>
                        </g>
                    </g>
                </g>
            </g>
        </g>
    </g>
</svg>