<?xml version="1.0" encoding="UTF-8" standalone="no"?>
<svg width="18px" height="18px" viewBox="0 0 18 18" version="1.1" xmlns="http://www.w3.org/2000/svg" xmlns:xlink="http://www.w3.org/1999/xlink">
    <!-- Generator: Sketch 41.2 (35397) - http://www.bohemiancoding.com/sketch -->
    <title>Shape</title>
    <desc>Created with Sketch.</desc>
    <defs></defs>
    <g id="SPORTSBET---WORKING-AREA" stroke="none" stroke-width="1" fill="none" fill-rule="evenodd">
        <g id="Sportsbet---Main" transform="translate(-1156.000000, -34.000000)" fill="#444444">
            <g id="logged-out" transform="translate(1130.000000, 22.000000)">
                <g id="Dynamic-group">
                    <g id="Group-2" transform="translate(26.000000, 5.000000)">
                        <path d="M8.85000038,7 C3.96480017,7 0,10.9648002 0,15.8500004 C0,20.7352006 3.96480017,24.7000008 8.85000038,24.7000008 C13.7352006,24.7000008 17.7000008,20.7352006 17.7000008,15.8500004 C17.7000008,10.9648002 13.7352006,7 8.85000038,7 Z M8.85000038,9.65500011 C10.3191004,9.65500011 11.5050005,10.8409002 11.5050005,12.3100002 C11.5050005,13.7791003 10.3191004,14.9650003 8.85000038,14.9650003 C7.38090032,14.9650003 6.19500027,13.7791003 6.19500027,12.3100002 C6.19500027,10.8409002 7.38090032,9.65500011 8.85000038,9.65500011 Z M8.85000038,22.2220007 C6.63750029,22.2220007 4.6816502,21.0892006 3.54000015,19.3723005 C3.56655015,17.6111505 7.08000031,16.6465004 8.85000038,16.6465004 C10.6111505,16.6465004 14.1334506,17.6111505 14.1600006,19.3723005 C13.0183506,21.0892006 11.0625005,22.2220007 8.85000038,22.2220007 Z" id="Shape"></path>
                    </g>
                </g>
            </g>
        </g>
    </g>
</svg>