<?xml version="1.0" encoding="UTF-8" standalone="no"?>
<svg width="55px" height="37px" viewBox="0 0 55 37" version="1.1" xmlns="http://www.w3.org/2000/svg" xmlns:xlink="http://www.w3.org/1999/xlink">
    <!-- Generator: Sketch 41.2 (35397) - http://www.bohemiancoding.com/sketch -->
    <title>promotions-icon</title>
    <desc>Created with Sketch.</desc>
    <defs></defs>
    <g id="SPORTSBET---WORKING-AREA" stroke="none" stroke-width="1" fill="none" fill-rule="evenodd" opacity="0.497622283">
        <g id="Sportsbet---Main" transform="translate(-943.000000, -2326.000000)" fill="#FFFFFF">
            <g id="Group-13" transform="translate(445.000000, 2302.000000)">
                <g id="Group-10" transform="translate(440.000000, 0.000000)">
                    <g id="Group-8" transform="translate(37.893939, 24.030303)">
                        <g id="Group-3" transform="translate(20.333333, 0.000000)">
                            <g id="promotions-icon">
                                <path d="M19.147044,28.6317697 C19.3488084,28.6317697 19.5505729,28.678883 19.7353053,28.7704923 L29.0335019,33.4360199 L27.1232904,23.5867181 C27.0394403,23.1574633 27.1756968,22.7151216 27.4862044,22.408885 L35.1191893,14.8471967 L24.7545234,13.9232521 C24.2854866,13.8813736 23.8740967,13.5908414 23.6788831,13.1628954 L19.147044,3.23376264 L14.6152049,13.1628954 C14.4199912,13.5908414 14.0086014,13.8813736 13.5395645,13.9232521 L3.17227836,14.8471967 L10.8078835,22.4193546 C11.1183912,22.7268999 11.2546477,23.1692417 11.1707975,23.5971877 L9.26189622,33.3980675 L18.5627132,28.7691836 C18.7461354,28.6775743 18.9478998,28.6317697 19.147044,28.6317697 M29.6322444,36.4054679 C29.2968438,36.4054679 28.9614432,36.3282544 28.6483152,36.17121 L19.1444237,31.4036035 L9.6405321,36.1332576 C8.88981114,36.5075468 8.00938446,36.4264072 7.3412035,35.9160129 C6.6743327,35.4095446 6.3598946,34.5837528 6.52104412,33.7618871 L8.46531971,23.7843323 L0.663324362,16.045969 C0.0527903852,15.441348 -0.146353744,14.5645168 0.145811656,13.7570468 C0.436666898,12.9495767 1.15070342,12.3999213 2.00754724,12.3227078 L12.5477744,11.3843675 L17.158223,1.27986845 C17.5185167,0.493337704 18.2797189,0.00388262877 19.147044,0.00388262877 C20.0143691,0.00388262877 20.7755713,0.493337704 21.135865,1.28117716 L25.7463136,11.3843675 L36.2852306,12.3227078 C37.1407642,12.3986126 37.8548007,12.948268 38.1469661,13.755738 C38.4391315,14.5632081 38.2399874,15.441348 37.6294534,16.045969 L29.8274581,23.7751713 L31.774354,33.8050743 C31.9341934,34.6282487 31.6184451,35.4540406 30.948954,35.9605088 C30.5598368,36.2549671 30.0973508,36.4054679 29.6322444,36.4054679" id="Fill-1"></path>
                                <path d="M40.6976213,27.4179474 L33.6202712,23.8676901 L34.6164249,21.8875685 L40.7941306,24.9857331 L39.5261979,18.4569829 C39.4563118,18.0935358 39.57057,17.7190081 39.8334747,17.4586116 L44.89855,12.4423773 L38.0352953,11.8307225 C37.638165,11.7952643 37.289844,11.5492727 37.1245579,11.1869337 L34.1183481,4.60056386 L31.1121382,11.1869337 L29.0932077,10.2672353 L32.5497943,2.69357489 C32.8348851,2.07083938 33.4350177,1.68633899 34.1183481,1.68633899 C34.8027877,1.68633899 35.4029204,2.07305552 35.6857925,2.69468296 L38.8750373,9.68106616 L46.1587176,10.3292873 C46.8331736,10.3891231 47.3966992,10.8223786 47.6263249,11.459519 C47.8559505,12.0977675 47.6995388,12.7892033 47.2169922,13.2667816 L41.8169076,18.6154369 L43.1624915,25.551957 C43.288952,26.2023942 43.0382496,26.8528315 42.5113309,27.2528449 C42.2040541,27.4844316 41.8402029,27.6029951 41.4730238,27.6029951 C41.2101191,27.6029951 40.9438865,27.5420512 40.6976213,27.4179474 Z" id="Fill-1"></path>
                                <path d="M50.2317274,19.0937063 C50.0740095,19.0937063 49.9142952,19.0571457 49.7665595,18.9826952 L45.5208214,16.8528779 L46.118419,15.664993 L49.8237905,17.5235975 L49.0638167,13.6069673 C49.0218917,13.3889336 49.0904357,13.1642525 49.2481536,13.0080393 L52.2867179,9.99877499 L48.1687512,9.63184018 C47.9305107,9.6105686 47.7222167,9.46299699 47.6223952,9.245628 L45.8196202,5.29443143 L44.0161797,9.245628 L42.8050131,8.69389631 L44.8786369,4.1504191 C45.0496643,3.77750166 45.4096869,3.54617319 45.8196202,3.54617319 L45.8202857,3.54617319 C46.230219,3.54683793 46.5902417,3.77816639 46.7599381,4.15108384 L48.6731821,8.34225045 L53.0426988,8.73112158 C53.4479738,8.76768212 53.7847048,9.02759427 53.9231238,9.40981803 C54.0608774,9.79137706 53.9663798,10.2068377 53.6782286,10.4933393 L50.438025,13.7020247 L51.2445821,17.8632781 C51.3211119,18.2521493 51.1713798,18.6430146 50.8552786,18.8829846 C50.6709417,19.0225794 50.452,19.0937063 50.2317274,19.0937063" id="Page-1"></path>
                            </g>
                        </g>
                    </g>
                </g>
            </g>
        </g>
    </g>
</svg>