<?xml version="1.0" encoding="UTF-8" standalone="no"?>
<svg width="20px" height="20px" viewBox="0 0 20 20" version="1.1" xmlns="http://www.w3.org/2000/svg" xmlns:xlink="http://www.w3.org/1999/xlink">
    <!-- Generator: Sketch 41.2 (35397) - http://www.bohemiancoding.com/sketch -->
    <title>Shape</title>
    <desc>Created with Sketch.</desc>
    <defs></defs>
    <g id="SPORTSBET---WORKING-AREA" stroke="none" stroke-width="1" fill="none" fill-rule="evenodd">
        <g id="Sportsbet---Main" transform="translate(-125.000000, -109.000000)" fill="#444444">
            <path d="M139.293882,121.578616 L138.390509,121.578616 L138.070326,121.269868 C139.190966,119.966266 139.865638,118.273871 139.865638,116.432819 C139.865638,112.327616 136.538022,109 132.432819,109 C128.327616,109 125,112.327616 125,116.432819 C125,120.538022 128.327616,123.865638 132.432819,123.865638 C134.273871,123.865638 135.966266,123.190966 137.269868,122.070326 L137.578616,122.390509 L137.578616,123.293882 L143.296169,129 L145,127.296169 L139.293882,121.578616 L139.293882,121.578616 Z M132.432819,121.578616 C129.585477,121.578616 127.287021,119.28016 127.287021,116.432819 C127.287021,113.585477 129.585477,111.287021 132.432819,111.287021 C135.28016,111.287021 137.578616,113.585477 137.578616,116.432819 C137.578616,119.28016 135.28016,121.578616 132.432819,121.578616 Z" id="Shape"></path>
        </g>
    </g>
</svg>